<svg xmlns="http://www.w3.org/2000/svg" width="226" height="45" viewBox="0 0 226 44.57">
  <defs>
    <style>
      .cls-1, .cls-2 {
        fill: #646363;
      }

      .cls-1, .cls-3 {
        fill-rule: evenodd;
      }

      .cls-3, .cls-4 {
        fill: #ed6b06;
      }
    </style>
  </defs>
   <path class="cls-1" d="M138.91,17.45l-3.06,3.06a5.22,5.22,0,0,0-3.39-1.85,2.14,2.14,0,0,0-1.31.36,1,1,0,0,0-.46.87,1.13,1.13,0,0,0,.29.74,5.86,5.86,0,0,0,1.48.91l1.81.91a10.59,10.59,0,0,1,3.93,2.88,6,6,0,0,1-.86,7.82,7.38,7.38,0,0,1-5.17,1.76,8.24,8.24,0,0,1-6.89-3.37l3.06-3.31a7,7,0,0,0,2,1.63,4.49,4.49,0,0,0,2.07.63A2.5,2.5,0,0,0,134,30a1.38,1.38,0,0,0,.6-1.09c0-.76-.72-1.5-2.16-2.23l-1.67-.83q-4.77-2.4-4.77-6a5.24,5.24,0,0,1,1.79-4,6.56,6.56,0,0,1,4.61-1.66,8,8,0,0,1,6.49,3.26Z"/>
   <path class="cls-1" d="M143.13,14.7h5V17a8.39,8.39,0,0,1,2.81-2.08,8.27,8.27,0,0,1,3.38-.69,6.23,6.23,0,0,1,3.34.91A6.48,6.48,0,0,1,160,17.74a7.93,7.93,0,0,1,2.9-2.64,7.78,7.78,0,0,1,3.74-.91,6.89,6.89,0,0,1,3.7,1,5.67,5.67,0,0,1,2.29,2.55,13.73,13.73,0,0,1,.7,5.12V34.4h-5v-10q0-3.34-.84-4.53a2.86,2.86,0,0,0-2.5-1.19,3.81,3.81,0,0,0-2.27.72,4.39,4.39,0,0,0-1.5,2,12.65,12.65,0,0,0-.48,4.1V34.4h-5V24.86a13,13,0,0,0-.39-3.83,3.45,3.45,0,0,0-1.17-1.77,3,3,0,0,0-1.88-.58,3.78,3.78,0,0,0-2.25.73,4.47,4.47,0,0,0-1.51,2.06,12.81,12.81,0,0,0-.49,4.16V34.4h-5Z"/>
   <path class="cls-1" d="M221,22.08a4.92,4.92,0,0,0-1.93-2.68,5.62,5.62,0,0,0-3.34-1,5.93,5.93,0,0,0-3.64,1.16,6.61,6.61,0,0,0-1.81,2.54ZM226,26H210.09a5.33,5.33,0,0,0,1.84,3.34,5.77,5.77,0,0,0,3.82,1.24,6.57,6.57,0,0,0,4.76-1.94l4.16,2a9.74,9.74,0,0,1-3.73,3.27,11.56,11.56,0,0,1-5.16,1.06A10.19,10.19,0,0,1,208.23,32a9.93,9.93,0,0,1-2.92-7.32,10.29,10.29,0,0,1,2.91-7.49,9.74,9.74,0,0,1,7.29-3,10.11,10.11,0,0,1,7.57,3A10.79,10.79,0,0,1,226,25Z"/>
   <rect class="cls-2" x="177.73" y="7.59" width="5.01" height="15.89"/>
   <rect class="cls-2" x="177.73" y="28.21" width="5.01" height="6.25"/>
   <path class="cls-3" d="M192.66,42.05,188,37.36A23.13,23.13,0,0,0,188,4.7L192.66,0A29.77,29.77,0,0,1,192.66,42.05Z"/>
   <path class="cls-3" d="M34.34,34.66a10.52,10.52,0,0,0,7.48-3.1l-2-2a7.79,7.79,0,0,1-11,0,7.79,7.79,0,0,1,5.51-13.3,7.7,7.7,0,0,1,4.43,1.38L29,27.49l2,2L41.65,18.72l1.22-1.06-1-1.05a10.57,10.57,0,1,0-7.48,18Z"/>
   <path class="cls-3" d="M71.54,31.56a10.56,10.56,0,0,0,14.95,0l-2-2a7.79,7.79,0,1,1-1.08-11.92l-9.82,9.82,2,2L86.35,18.71l1.18-1.07-1-1a10.56,10.56,0,0,0-14.95,0A10.59,10.59,0,0,0,71.54,31.56Z"/>
   <path class="cls-3" d="M10.58,31.87v2.78A10.57,10.57,0,1,0,0,24.17v20.4H2.78V24.08a7.79,7.79,0,1,1,7.8,7.79Z"/>
   <path class="cls-3" d="M48.22,24.08A7.8,7.8,0,0,1,56,16.29V13.51A10.58,10.58,0,0,0,45.43,24v.08l0,10.65h2.78Z"/>
   <path class="cls-3" d="M62.22,16.19h-2V13.41h2V11.29A7.79,7.79,0,0,1,70,3.51V.72A10.59,10.59,0,0,0,59.44,11.33l0,23.43H62.2Z"/>
   <rect class="cls-4" x="60.18" y="13.41" width="8.76" height="2.78"/>
   <path class="cls-3" d="M111.69,16.18V13.39h.75V.4h-2.79V24.08a10.59,10.59,0,0,0,10.57,10.58V31.87A7.81,7.81,0,0,1,112.44,24V16.18Z"/>
   <rect class="cls-4" x="111.69" y="13.39" width="8.76" height="2.79"/>
   <path class="cls-3" d="M99.42,34.66h.15A10.48,10.48,0,0,0,107,31.46l-2-1.94a7.73,7.73,0,0,1-5.48,2.35h-.11a7.79,7.79,0,1,1,5.44-13.37l1.94-2a10.57,10.57,0,1,0-7.38,18.15Z"/>
</svg>
