<?xml version="1.0" encoding="utf-8"?>
<!-- Generator: Adobe Illustrator 25.2.3, SVG Export Plug-In . SVG Version: 6.00 Build 0)  -->
<svg version="1.1" id="Layer_1" xmlns="http://www.w3.org/2000/svg" xmlns:xlink="http://www.w3.org/1999/xlink" x="0px" y="0px"
	 viewBox="0 0 400 128" style="enable-background:new 0 0 400 128;" xml:space="preserve">
<style type="text/css">
	.st0{fill:#20B63B;}
	.st1{fill:#FFFFFF;}
</style>
<g>
	<path class="st0" d="M104.86,29.27c-0.12-2.29-0.95-3.28-3.19-3.74c-5.41-1.11-10.69-2.7-15.85-4.66
		c-11.06-4.22-21.44-9.73-31.14-16.52c-1.37-0.96-2.69-0.92-4.08,0.06c-1.42,1-2.82,2.03-4.28,2.97C32.98,16,18.72,22.45,3.09,25.68
		c-1.5,0.31-2.52,1.56-2.58,3.09c-0.07,2.09-0.14,4.18-0.21,6.27c0.05,5.29,0.47,10.54,1.3,15.76c1.4,8.78,3.94,17.22,7.59,25.33
		c5.82,12.9,13.93,24.19,23.93,34.16c5.26,5.24,10.91,10.01,17.08,14.16c1.67,1.12,3.17,1.17,4.86,0.03
		c3.97-2.68,7.75-5.59,11.34-8.76c11.81-10.42,21.46-22.53,28.39-36.73c5.34-10.94,8.6-22.47,9.76-34.58
		C105.05,39.37,105.13,34.32,104.86,29.27z"/>
	<g>
		<path class="st0" d="M266.21,74.17c1.83-2.12,4.69-3.17,8.58-3.17h8.9c2.03,0,3.76,0.27,5.21,0.78c1.45,0.53,2.75,1.57,3.89,3.13
			c1.14,1.56,1.97,3.62,2.48,6.16h0.87V70.04c-2.35,0-3.74-0.45-4.17-1.33c-0.42-0.88-0.64-3.2-0.64-6.95V42.36
			c0-2.31,0.3-3.77,0.91-4.38c0.59-0.62,1.97-0.96,4.13-1.03v-0.96h-28.77v0.96c1.83,0.07,3.05,0.2,3.64,0.41
			c0.58,0.2,1.1,0.71,1.52,1.52c0.43,0.81,0.64,2.08,0.64,3.79c0,2.87-0.33,6.56-1,11.05c-0.66,4.47-1.87,8.26-3.6,11.34
			c-1.74,3.08-3.97,4.73-6.74,4.98v11.02h0.88C263.3,78.58,264.38,76.29,266.21,74.17z M273.53,59.38
			c1.2-4.11,2.01-11.28,2.44-21.48h10.44v26.65c0,2.22-0.23,3.53-0.69,3.93c-0.45,0.4-1.82,0.61-4.12,0.61h-12.91
			C270.72,66.74,272.33,63.49,273.53,59.38z"/>
		<path class="st0" d="M345.33,70.04h-1.26c-0.82,0-1.6-0.21-2.33-0.63c-0.56-0.31-0.91-0.68-1.1-1.11
			c-0.21-0.56-0.33-1.73-0.33-3.5V54.14h16.2V64.8c0,2.1-0.21,3.43-0.64,3.97c-0.65,0.85-1.69,1.27-3.11,1.27h-1.23V71h14.91v-0.95
			h-1.24c-0.82,0-1.6-0.21-2.36-0.63c-0.54-0.31-0.89-0.68-1.06-1.11c-0.23-0.56-0.33-1.73-0.33-3.5V42.21
			c0-1.72,0.1-2.85,0.29-3.42c0.2-0.55,0.57-0.98,1.12-1.25c0.74-0.4,1.52-0.59,2.33-0.59h1.24v-0.96h-14.91v0.96h1.23
			c0.82,0,1.6,0.2,2.35,0.61c0.54,0.31,0.9,0.68,1.07,1.11c0.22,0.57,0.33,1.75,0.33,3.54v10.02h-16.2V42.21
			c0-1.72,0.11-2.85,0.32-3.42c0.2-0.55,0.57-0.98,1.11-1.25c0.74-0.4,1.51-0.59,2.33-0.59h1.26v-0.96h-14.94v0.96h1.23
			c0.83,0,1.62,0.2,2.38,0.61c0.52,0.31,0.87,0.68,1.05,1.11c0.22,0.57,0.34,1.75,0.34,3.54V64.8c0,2.1-0.22,3.43-0.63,3.97
			c-0.66,0.85-1.7,1.27-3.14,1.27h-1.23V71h14.94V70.04z"/>
		<path class="st0" d="M328.27,62.22h-1.03c-1.12,2.15-2.2,3.76-3.27,4.83c-0.82,0.81-1.68,1.34-2.57,1.62
			c-0.88,0.28-2.32,0.41-4.29,0.41h-5.91c-0.96,0-1.62-0.1-1.96-0.29c-0.34-0.2-0.58-0.47-0.72-0.81c-0.13-0.33-0.2-1.28-0.2-2.83
			V53.62h7.66c1.46,0,2.54,0.18,3.24,0.52c0.7,0.34,1.2,0.83,1.51,1.42c0.24,0.49,0.49,1.58,0.72,3.28h0.95V46.65h-0.95
			c-0.1,2-0.6,3.39-1.49,4.19c-0.66,0.6-1.99,0.9-3.99,0.9h-7.66V37.9h9.57c1.73,0,2.94,0.14,3.63,0.4c0.86,0.35,1.5,0.88,1.94,1.58
			c0.45,0.69,0.83,1.94,1.2,3.79h1l-0.39-7.66h-26.87v0.96h1.24c1.44,0,2.46,0.34,3.08,1.03c0.45,0.52,0.66,1.89,0.66,4.11v22.74
			c0,1.7-0.1,2.83-0.29,3.38c-0.21,0.54-0.57,0.96-1.12,1.23c-0.74,0.4-1.52,0.6-2.33,0.6h-1.24V71h26.87L328.27,62.22z"/>
		<path class="st0" d="M371.22,40.43c0.63-0.93,1.39-1.56,2.29-1.89c0.68-0.24,1.84-0.36,3.47-0.36h4.2v26.76
			c0,1.96-0.19,3.21-0.57,3.76c-0.61,0.9-1.65,1.35-3.13,1.35h-1.23V71h14.79v-0.95h-1.22c-1.35,0-2.35-0.36-3.01-1.09
			c-0.45-0.53-0.69-1.87-0.69-4.02V38.18h4.92c1.44,0,2.59,0.24,3.49,0.71c0.88,0.48,1.58,1.21,2.11,2.2
			c0.34,0.63,0.59,1.66,0.77,3.11h0.98l-0.39-8.21h-28.46l-0.42,8.21h0.98C370.21,42.61,370.59,41.36,371.22,40.43z"/>
		<path class="st0" d="M149.36,37.98c0.6-0.62,2-0.96,4.17-1.03v-0.96h-36.41v0.96c2.18,0.07,3.57,0.41,4.17,1.03
			c0.61,0.62,0.91,2.08,0.91,4.38v22.25c0,2.31-0.31,3.77-0.91,4.39c-0.6,0.62-1.99,0.97-4.17,1.04V71h15.14v-0.95
			c-2.2-0.07-3.59-0.41-4.19-1.04c-0.6-0.62-0.89-2.08-0.89-4.39V37.9h16.3v26.72c0,2.32-0.3,3.8-0.91,4.4
			c-0.6,0.61-1.98,0.96-4.14,1.03V71h15.11v-0.95c-2.18-0.07-3.58-0.41-4.17-1.04c-0.6-0.62-0.91-2.08-0.91-4.39V42.36
			C148.45,40.06,148.76,38.6,149.36,37.98z"/>
		<path class="st0" d="M242.49,70.08c-1.41-0.03-2.39-0.17-2.96-0.41c-0.56-0.25-0.91-0.58-1.06-1c-0.15-0.43-0.24-1.27-0.25-2.52
			l13.63-17.39v16.79c0,1.92-0.25,3.14-0.76,3.66c-0.51,0.52-1.69,0.82-3.55,0.88v0.8h12.72v-0.8c-1.82-0.06-2.98-0.35-3.5-0.87
			c-0.5-0.51-0.76-1.73-0.76-3.67v-18.6c0-1.93,0.26-3.16,0.76-3.67c0.51-0.52,1.68-0.8,3.5-0.86v-0.8h-12.72v0.8
			c1.72,0,2.88,0.23,3.46,0.7c0.57,0.46,0.85,1.57,0.85,3.33L238.22,63.8V46.94c0-1.93,0.25-3.16,0.76-3.67
			c0.5-0.52,1.67-0.8,3.51-0.86v-0.8h-12.68v0.8c1.83,0.05,2.98,0.34,3.48,0.86c0.51,0.52,0.77,1.75,0.77,3.67v18.6
			c0,1.94-0.26,3.15-0.77,3.67c-0.5,0.53-1.66,0.81-3.48,0.87v0.8h12.68V70.08z"/>
		<path class="st0" d="M205.23,63.54h-0.86c-0.94,1.79-1.86,3.14-2.75,4.04c-0.7,0.68-1.42,1.13-2.17,1.35
			c-0.75,0.24-1.96,0.35-3.62,0.35h-4.98c-0.81,0-1.36-0.08-1.65-0.25c-0.29-0.16-0.49-0.39-0.6-0.66
			c-0.11-0.28-0.17-1.08-0.17-2.37v-9.66h6.46c1.23,0,2.13,0.15,2.73,0.44c0.59,0.28,1.02,0.68,1.27,1.19
			c0.2,0.4,0.41,1.31,0.6,2.74h0.81V50.52h-0.81c-0.09,1.68-0.5,2.84-1.25,3.5c-0.56,0.5-1.68,0.76-3.35,0.76h-6.46V43.21h8.07
			c1.45,0,2.47,0.11,3.05,0.32c0.73,0.3,1.26,0.74,1.63,1.32c0.37,0.57,0.7,1.63,1.01,3.17h0.85l-0.33-6.41h-22.64v0.8h1.04
			c1.21,0,2.08,0.28,2.59,0.86c0.37,0.44,0.56,1.58,0.56,3.44v19.02c0,1.42-0.08,2.36-0.24,2.83c-0.16,0.45-0.48,0.8-0.95,1.03
			c-0.61,0.33-1.27,0.5-1.96,0.5h-1.04v0.8h22.64L205.23,63.54z"/>
		<path class="st0" d="M217.37,71.55c2.78,0,5.11-0.77,6.99-2.29c1.88-1.53,2.82-3.49,2.82-5.91c0-1.96-0.62-3.66-1.85-5.11
			c-1.22-1.45-2.84-2.34-4.82-2.71c1.84-0.59,3.31-1.52,4.41-2.77c1.12-1.26,1.68-2.77,1.68-4.54c0-1.95-0.74-3.64-2.21-5.1
			c-1.47-1.46-3.43-2.18-5.85-2.18c-1.79,0-3.51,0.3-5.13,0.89c-1.05,0.38-1.72,0.58-2.04,0.58c-0.84,0-1.37-0.48-1.61-1.43H209
			v8.51h0.75c0.37-1.98,1.13-3.59,2.3-4.81c1.16-1.21,2.78-1.82,4.83-1.82c1.67,0,2.99,0.51,3.94,1.51
			c0.97,1.01,1.45,2.31,1.45,3.89c0,1.37-0.34,2.57-1.04,3.6c-0.69,1.04-1.59,1.79-2.7,2.25c-1.11,0.45-2.77,0.68-4.96,0.68v1.43
			c3.1,0,5.33,0.66,6.67,1.96c1.35,1.31,2.02,2.92,2.02,4.82c0,1.84-0.53,3.39-1.6,4.67c-1.05,1.27-2.55,1.91-4.47,1.91
			c-1.61,0-3.12-0.43-4.52-1.3c-1.4-0.87-2.48-1.89-3.2-3.09l-0.75,0.48C210.01,69.59,213.22,71.55,217.37,71.55z"/>
		<path class="st0" d="M167.8,70.08h-1.13c-1.11,0-1.94-0.32-2.48-0.95c-0.41-0.44-0.62-1.59-0.62-3.43v-8.53
			c0.94,0.21,1.82,0.35,2.64,0.45c0.82,0.1,1.59,0.16,2.29,0.16c2.9,0,5.12-0.76,6.71-2.25c1.57-1.5,2.37-3.44,2.37-5.83
			c0-1.76-0.52-3.27-1.57-4.55c-1.04-1.28-2.31-2.2-3.84-2.73c-1.51-0.54-3.58-0.81-6.2-0.81h-10.77v0.8h1.1
			c1.11,0,1.95,0.32,2.51,0.95c0.39,0.45,0.59,1.59,0.59,3.42V65.7c0,1.66-0.15,2.73-0.44,3.18c-0.54,0.8-1.42,1.21-2.66,1.21h-1.1
			v0.8h12.59V70.08z M163.57,43.76c1.16-0.27,2.1-0.41,2.83-0.41c1.22,0,2.3,0.27,3.25,0.81c0.95,0.54,1.69,1.35,2.22,2.44
			c0.51,1.08,0.78,2.26,0.78,3.53c0,1.84-0.55,3.33-1.64,4.49c-1.1,1.17-2.39,1.74-3.89,1.74c-0.43,0-0.92-0.04-1.51-0.1
			c-0.61-0.07-1.28-0.18-2.04-0.33V43.76z"/>
		<rect x="116.52" y="84.62" class="st0" width="282.27" height="2.41"/>
		<path class="st0" d="M142.58,94.97c-2.9,0-5.45,2.04-5.45,5.52c0,3.48,2.49,5.52,5.42,5.52c3.23,0,5.47-2.27,5.47-5.52
			C148.02,97.01,145.5,94.97,142.58,94.97z M142.58,104.33c-2.02,0-3.65-1.36-3.65-3.84c0-2.47,1.65-3.86,3.67-3.86
			c2,0,3.65,1.42,3.65,3.86C146.25,102.97,144.58,104.33,142.58,104.33z"/>
		<polygon class="st0" points="155.52,100.64 151.17,95.12 150.51,95.12 150.51,105.82 152.3,105.82 152.3,99.14 155.4,103.09 
			155.65,103.09 158.73,99.14 158.73,105.82 160.52,105.82 160.52,95.12 159.86,95.12 		"/>
		<path class="st0" d="M298.92,92.88c-0.73-0.01-1.24-0.32-1.33-0.99l-1.24,0.12c0.11,1.39,1.07,2.3,2.58,2.3
			c1.59,0,2.4-0.94,2.52-2.3c-0.34-0.05-0.81-0.09-1.15-0.12C300.19,92.62,299.62,92.88,298.92,92.88z"/>
		<path class="st0" d="M121.88,104.31c-2.19,0-3.64-1.7-3.64-3.82c0-2.28,1.45-3.87,3.64-3.87c1.41,0.02,2.6,0.63,3.13,1.95h1.71
			c-0.57-2.41-2.73-3.57-4.83-3.57c-2.92,0-5.44,2.03-5.44,5.48v0c0,3.44,2.52,5.43,5.42,5.43c2.17,0,4.37-1.14,4.9-3.75h-1.73
			C124.58,103.59,123.34,104.31,121.88,104.31z"/>
		<polygon class="st0" points="128.04,96.72 131.14,96.72 131.14,105.82 132.88,105.82 132.88,96.72 135.98,96.72 135.98,95.15 
			128.04,95.15 		"/>
		<polygon class="st0" points="338.6,100.64 334.25,95.12 333.59,95.12 333.59,105.82 335.38,105.82 335.38,99.14 338.48,103.09 
			338.72,103.09 341.81,99.14 341.81,105.82 343.6,105.82 343.6,95.12 342.94,95.12 		"/>
		<path class="st0" d="M317.1,97.6c0.32-1.1,0.7-1.3,1.77-1.22v-1.22c-2.2-0.41-3.03,0.55-3.41,1.92c-0.29,1.11-0.6,2.2-1.22,2.53
			c-0.47,0.24-1.28,0.26-2.09,0.26v-4.73h-1.79v10.67h1.79v-4.5c0.52,0,1.54,0,2-0.17l3.06,4.67h2.02v-0.26l-3.51-5.11
			C316.43,99.8,316.78,98.76,317.1,97.6z"/>
		<path class="st0" d="M325.66,94.97c-2.9,0-5.45,2.04-5.45,5.52c0,3.48,2.49,5.52,5.42,5.52c3.22,0,5.47-2.27,5.47-5.52
			C331.1,97.01,328.58,94.97,325.66,94.97z M325.66,104.33c-2.02,0-3.65-1.36-3.65-3.84c0-2.47,1.65-3.86,3.67-3.86
			c2,0,3.65,1.42,3.65,3.86C329.33,102.97,327.66,104.33,325.66,104.33z"/>
		<polygon class="st0" points="283.92,102.29 284.04,99.03 284.04,95.15 282.27,95.15 282.27,105.82 282.88,105.82 289.42,98.57 
			289.3,101.94 289.3,105.8 291.05,105.8 291.05,95.12 290.41,95.12 		"/>
		<polygon class="st0" points="346.72,105.82 348.49,105.82 348.49,96.76 353.36,96.76 353.36,105.82 355.15,105.82 355.15,95.15 
			346.72,95.15 		"/>
		<polygon class="st0" points="295.82,102.29 295.94,99.03 295.94,95.15 294.17,95.15 294.17,105.82 294.78,105.82 301.32,98.56 
			301.2,101.95 301.2,105.82 302.95,105.82 302.95,95.12 302.31,95.12 		"/>
		<path class="st0" d="M359.05,102.92c-0.14,1.22-0.44,1.74-1.8,1.55l-0.03,1.31c2.54,0.37,3.38-0.34,3.61-2.8l0.64-6.25h3.5v9.09
			h1.79V95.15h-6.86L359.05,102.92z"/>
		<path class="st0" d="M167.27,95.07l-4.95,10.52v0.23h1.86l1.04-2.21h4.89l1.05,2.21h1.85v-0.23l-4.92-10.52H167.27z
			 M165.81,102.12l1.88-4.27l1.86,4.27H165.81z"/>
		<path class="st0" d="M278.08,97.6c0.32-1.1,0.7-1.3,1.77-1.22v-1.22c-2.2-0.41-3.03,0.55-3.41,1.92c-0.29,1.11-0.6,2.2-1.22,2.53
			c-0.47,0.24-1.28,0.26-2.09,0.26v-4.73h-1.79v10.67h1.79v-4.5c0.52,0,1.54,0,2-0.17l3.06,4.67h2.02v-0.26l-3.51-5.11
			C277.41,99.8,277.76,98.76,278.08,97.6z"/>
		<path class="st0" d="M397.58,102.18c-0.47,1.42-1.71,2.13-3.18,2.13c-2.19,0-3.64-1.7-3.64-3.82c0-2.28,1.45-3.87,3.64-3.87
			c1.41,0.02,2.6,0.63,3.13,1.95h1.71c-0.57-2.41-2.73-3.57-4.83-3.57c-2.92,0-5.44,2.03-5.44,5.48v0c0,3.44,2.52,5.43,5.42,5.43
			c2.17,0,4.37-1.14,4.9-3.75H397.58z"/>
		<polygon class="st0" points="371.65,101.09 376.11,101.09 376.11,99.53 371.65,99.53 371.65,96.7 376.37,96.7 376.37,95.15 
			369.86,95.15 369.86,105.82 376.46,105.82 376.46,104.21 371.65,104.21 		"/>
		<path class="st0" d="M385.88,97.6c0.32-1.1,0.7-1.3,1.77-1.22v-1.22c-2.2-0.41-3.03,0.55-3.41,1.92c-0.29,1.11-0.6,2.2-1.22,2.53
			c-0.47,0.24-1.28,0.26-2.09,0.26v-4.73h-1.79v10.67h1.79v-4.5c0.52,0,1.54,0,2-0.17l3.06,4.67H388v-0.26l-3.51-5.11
			C385.2,99.8,385.55,98.76,385.88,97.6z"/>
		<path class="st0" d="M187.53,94.97c-2.9,0-5.45,2.04-5.45,5.52c0,3.48,2.49,5.52,5.42,5.52c3.23,0,5.47-2.27,5.47-5.52
			C192.97,97.01,190.45,94.97,187.53,94.97z M187.53,104.33c-2.02,0-3.65-1.36-3.65-3.84c0-2.47,1.65-3.86,3.67-3.86
			c2,0,3.65,1.42,3.65,3.86C191.2,102.97,189.54,104.33,187.53,104.33z"/>
		<path class="st0" d="M264.07,104.31c-2.19,0-3.64-1.7-3.64-3.82c0-2.28,1.45-3.87,3.64-3.87c1.41,0.02,2.6,0.63,3.13,1.95h1.71
			c-0.57-2.41-2.74-3.57-4.83-3.57c-2.92,0-5.44,2.03-5.44,5.48v0c0,3.44,2.52,5.43,5.42,5.43c2.17,0,4.37-1.14,4.9-3.75h-1.73
			C266.77,103.59,265.53,104.31,264.07,104.31z"/>
		<path class="st0" d="M195.98,102.92c-0.14,1.22-0.44,1.74-1.8,1.55l-0.03,1.31c2.54,0.37,3.38-0.34,3.61-2.8l0.64-6.25h3.5v9.09
			h1.79V95.15h-6.86L195.98,102.92z"/>
		<polygon class="st0" points="172.99,96.72 176.09,96.72 176.09,105.82 177.83,105.82 177.83,96.72 180.93,96.72 180.93,95.15 
			172.99,95.15 		"/>
		<path class="st0" d="M211.63,94.97c-2.9,0-5.45,2.04-5.45,5.52c0,3.48,2.49,5.52,5.42,5.52c3.22,0,5.47-2.27,5.47-5.52
			C217.07,97.01,214.55,94.97,211.63,94.97z M211.63,104.33c-2.02,0-3.65-1.36-3.65-3.84c0-2.47,1.65-3.86,3.67-3.86
			c2,0,3.65,1.42,3.65,3.86C215.3,102.97,213.63,104.33,211.63,104.33z"/>
		<path class="st0" d="M245.23,100.26c-3.07,0.61-4.3-0.24-4.3-3.41v-1.68h-1.8v1.68c0,4.39,2,5.78,6.1,5.07v3.9h1.76V95.17h-1.76
			V100.26z"/>
		<polygon class="st0" points="219.56,105.82 221.35,105.82 221.35,96.72 225.93,96.72 225.93,95.15 219.56,95.15 		"/>
		<polygon class="st0" points="251.91,101.09 256.37,101.09 256.37,99.53 251.91,99.53 251.91,96.7 256.63,96.7 256.63,95.15 
			250.12,95.15 250.12,105.82 256.72,105.82 256.72,104.21 251.91,104.21 		"/>
		<polygon class="st0" points="229.6,102.29 229.72,99.03 229.72,95.15 227.95,95.15 227.95,105.82 228.56,105.82 235.1,98.57 
			234.98,101.94 234.98,105.8 236.73,105.8 236.73,95.12 236.09,95.12 		"/>
	</g>
	<path class="st1" d="M79.14,61.66c0.41-0.42,1.36-0.65,2.85-0.7V60.3H57.13v0.66c1.49,0.05,2.44,0.28,2.85,0.7
		c0.42,0.42,0.62,1.42,0.62,2.99v15.19c0,1.58-0.21,2.57-0.62,2.99c-0.41,0.43-1.36,0.66-2.85,0.71v0.65h10.33v-0.65
		c-1.5-0.05-2.45-0.28-2.86-0.71C64.2,82.41,64,81.42,64,79.84V61.6h11.13v18.24c0,1.58-0.21,2.59-0.62,3
		c-0.41,0.42-1.35,0.65-2.83,0.7v0.65h10.31v-0.65c-1.49-0.05-2.44-0.28-2.85-0.71c-0.41-0.42-0.62-1.42-0.62-2.99V64.65
		C78.52,63.07,78.73,62.08,79.14,61.66z"/>
	<path class="st1" d="M40.44,61.35c1.09-6.16,4.15-16.37,13.68-20.47c9.53-4.1,18.86,1.63,18.86,1.63
		c-4.68-1.23-13.67-3.37-19.01,0.45c-6.27,4.49-8.31,11.97-8.22,18.98c0.25-1.7,1.24-4.35,1.77-5.91c0.89-2.66,2.7-5.02,4.56-6.83
		c3.19-3.1,7.18-4.25,11.77-4.25c6.03,0,11.44,3.14,14.73,8.14V34.57H26.71v49.4h12.8C39.5,79.02,39.58,66.26,40.44,61.35z"/>
</g>
</svg>
